<svg width="20" height="20" viewBox="0 0 20 20" fill="none" xmlns="http://www.w3.org/2000/svg">
<g clip-path="url(#clip0_12352_738)">
<path d="M11.9141 10C11.9141 11.0571 11.0571 11.9141 10 11.9141C8.94287 11.9141 8.08594 11.0571 8.08594 10C8.08594 8.94287 8.94287 8.08594 10 8.08594C11.0571 8.08594 11.9141 8.94287 11.9141 10Z" fill="white"/>
<path d="M14.4769 6.61343C14.3849 6.36411 14.2381 6.13843 14.0474 5.95319C13.8622 5.76245 13.6366 5.61566 13.3871 5.52365C13.1848 5.44507 12.8809 5.35153 12.321 5.32605C11.7154 5.29843 11.5338 5.29248 10.0006 5.29248C8.46725 5.29248 8.28568 5.29828 7.68021 5.3259C7.12036 5.35153 6.81625 5.44507 6.61407 5.52365C6.36459 5.61566 6.13892 5.76245 5.95383 5.95319C5.76309 6.13843 5.6163 6.36395 5.52414 6.61343C5.44556 6.81577 5.35202 7.11987 5.32654 7.67972C5.29892 8.28519 5.29297 8.46677 5.29297 10.0001C5.29297 11.5333 5.29892 11.7149 5.32654 12.3205C5.35202 12.8804 5.44556 13.1843 5.52414 13.3867C5.6163 13.6361 5.76294 13.8617 5.95367 14.0469C6.13892 14.2376 6.36444 14.3844 6.61392 14.4764C6.81625 14.5552 7.12036 14.6487 7.68021 14.6742C8.28568 14.7018 8.4671 14.7076 10.0005 14.7076C11.534 14.7076 11.7155 14.7018 12.3209 14.6742C12.8807 14.6487 13.1848 14.5552 13.3871 14.4764C13.8879 14.2833 14.2838 13.8875 14.4769 13.3867C14.5555 13.1843 14.649 12.8804 14.6747 12.3205C14.7023 11.7149 14.7081 11.5333 14.7081 10.0001C14.7081 8.46677 14.7023 8.28519 14.6747 7.67972C14.6492 7.11987 14.5557 6.81577 14.4769 6.61343ZM10.0006 12.9486C8.37204 12.9486 7.05185 11.6285 7.05185 9.99997C7.05185 8.3714 8.37204 7.05136 10.0006 7.05136C11.629 7.05136 12.9492 8.3714 12.9492 9.99997C12.9492 11.6285 11.629 12.9486 10.0006 12.9486ZM13.0658 7.62387C12.6852 7.62387 12.3767 7.31534 12.3767 6.93478C12.3767 6.55423 12.6852 6.2457 13.0658 6.2457C13.4464 6.2457 13.7549 6.55423 13.7549 6.93478C13.7547 7.31534 13.4464 7.62387 13.0658 7.62387Z" fill="white"/>
<path d="M10 0C4.478 0 0 4.478 0 10C0 15.522 4.478 20 10 20C15.522 20 20 15.522 20 10C20 4.478 15.522 0 10 0ZM15.7076 12.3674C15.6798 12.9787 15.5826 13.396 15.4407 13.7613C15.1424 14.5326 14.5326 15.1424 13.7613 15.4407C13.3961 15.5826 12.9787 15.6796 12.3676 15.7076C11.7552 15.7355 11.5596 15.7422 10.0002 15.7422C8.44055 15.7422 8.24509 15.7355 7.6326 15.7076C7.02148 15.6796 6.604 15.5826 6.23886 15.4407C5.85556 15.2965 5.50858 15.0705 5.22171 14.7783C4.92966 14.4916 4.70367 14.1444 4.55948 13.7613C4.41757 13.3961 4.32037 12.9787 4.2926 12.3676C4.26437 11.7551 4.25781 11.5594 4.25781 10C4.25781 8.44055 4.26437 8.24493 4.29245 7.6326C4.32022 7.02133 4.41727 6.604 4.55917 6.23871C4.70337 5.85556 4.9295 5.50842 5.22171 5.22171C5.50842 4.9295 5.85556 4.70352 6.23871 4.55933C6.604 4.41742 7.02133 4.32037 7.6326 4.29245C8.24493 4.26453 8.44055 4.25781 10 4.25781C11.5594 4.25781 11.7551 4.26453 12.3674 4.2926C12.9787 4.32037 13.396 4.41742 13.7613 4.55917C14.1444 4.70337 14.4916 4.9295 14.7784 5.22171C15.0705 5.50858 15.2966 5.85556 15.4407 6.23871C15.5827 6.604 15.6798 7.02133 15.7077 7.6326C15.7356 8.24493 15.7422 8.44055 15.7422 10C15.7422 11.5594 15.7356 11.7551 15.7076 12.3674Z" fill="white"/>
</g>
<defs>
<clipPath id="clip0_12352_738">
<rect width="20" height="20" fill="white"/>
</clipPath>
</defs>
</svg>
